<svg width="47" height="47" viewBox="0 0 47 47" fill="none" xmlns="http://www.w3.org/2000/svg">
<path d="M37.75 12.2188H37.1562V9.25C37.1562 4.3385 33.1615 0.34375 28.25 0.34375H9.25C4.3385 0.34375 0.34375 4.3385 0.34375 9.25V33C0.34375 33.7244 0.783133 34.3751 1.45051 34.6482C1.66901 34.7384 1.897 34.7812 2.125 34.7812C2.59525 34.7812 3.05603 34.5961 3.39803 34.2469L7.52811 30.0312H9.84375V33C9.84375 37.9115 13.8385 41.9062 18.75 41.9062H39.4719L43.602 46.1219C43.944 46.4711 44.4048 46.6562 44.875 46.6562C45.103 46.6562 45.331 46.6134 45.5495 46.5232C46.2192 46.2501 46.6562 45.597 46.6562 44.875V21.125C46.6562 16.2135 42.6615 12.2188 37.75 12.2188ZM6.77998 26.4688C6.30023 26.4688 5.8419 26.6611 5.50703 27.0031L3.90625 28.637V9.25C3.90625 6.30262 6.30262 3.90625 9.25 3.90625H28.25C31.1974 3.90625 33.5938 6.30262 33.5938 9.25V21.125C33.5938 24.0724 31.1974 26.4688 28.25 26.4688H6.77998ZM43.0938 40.512L41.493 38.8781C41.1581 38.5361 40.6998 38.3438 40.22 38.3438H18.75C15.8026 38.3438 13.4062 35.9474 13.4062 33V30.0312H28.25C33.1615 30.0312 37.1562 26.0365 37.1562 21.125V15.7812H37.75C40.6974 15.7812 43.0938 18.1776 43.0938 21.125V40.512Z" fill="url(#paint0_linear_517_241)"/>
<defs>
<linearGradient id="paint0_linear_517_241" x1="23.5" y1="46.6562" x2="23.5" y2="0.34375" gradientUnits="userSpaceOnUse">
<stop stop-color="#F794B1"/>
<stop offset="1" stop-color="#F44DBB"/>
</linearGradient>
</defs>
</svg>
