<svg width="47" height="47" viewBox="0 0 47 47" fill="none" xmlns="http://www.w3.org/2000/svg">
<path d="M42.4477 12.3741L30.5727 2.82326C26.4735 -0.47201 20.5265 -0.47201 16.4273 2.82326L4.55226 12.3741C1.87801 14.5242 0.34375 17.7244 0.34375 21.1551V35.391C0.34375 41.6062 5.40488 46.6643 11.625 46.6643H18.1562V35.391C18.1562 32.4498 20.5526 30.055 23.5 30.055C26.4474 30.055 28.8438 32.4498 28.8438 35.391V46.6643H35.375C41.5951 46.6643 46.6562 41.6086 46.6562 35.391V21.1551C46.6562 17.7244 45.122 14.5242 42.4477 12.3741ZM43.0938 35.391C43.0938 39.6414 39.631 43.1006 35.375 43.1006H32.4062V35.391C32.4062 30.485 28.4115 26.4911 23.5 26.4911C18.5885 26.4911 14.5938 30.485 14.5938 35.391V43.1006H11.625C7.369 43.1006 3.90625 39.6414 3.90625 35.391V21.1551C3.90625 18.8102 4.95362 16.6221 6.78237 15.1515L18.6574 5.60061C21.4646 3.34595 25.5354 3.34595 28.3402 5.60061L40.2152 15.1515C42.044 16.6221 43.0914 18.8102 43.0914 21.1551V35.391H43.0938Z" fill="url(#paint0_linear_517_227)"/>
<defs>
<linearGradient id="paint0_linear_517_227" x1="23.5" y1="46.6643" x2="23.5" y2="0.351807" gradientUnits="userSpaceOnUse">
<stop stop-color="#FF9FA2"/>
<stop offset="1" stop-color="#EAB1B3"/>
</linearGradient>
</defs>
</svg>
