<svg width="47" height="47" viewBox="0 0 47 47" fill="none" xmlns="http://www.w3.org/2000/svg">
<path d="M46.31 20.7416V35.3524C46.31 41.397 41.389 46.31 35.3418 46.31H29.2484V35.3495C29.2484 31.9943 26.8985 35.3495 23.5398 35.3495C20.1812 35.3495 17.0616 31.9943 17.0616 35.3495V46.31H10.9682C4.92105 46.31 0 41.3946 0 35.3524V20.7416C0 17.4084 1.49165 14.2948 4.08989 12.2027L16.2767 2.40296C20.2594 -0.800988 26.0433 -0.800988 30.0308 2.40296L42.2177 12.2027C44.8183 14.2948 46.31 17.4059 46.31 20.7416Z" fill="url(#paint0_linear_0_1)"/>
<path d="M14.3545 21.7496C14.3545 16.925 18.2613 13 23.0634 13C27.8654 13 31.7723 16.925 31.7723 21.7496C31.7723 26.5741 27.8654 30.4991 23.0634 30.4991C18.2613 30.4991 14.3545 26.5741 14.3545 21.7496ZM30.2343 32.3733C29.2606 32.1248 28.2016 32.2649 27.3255 32.7548C24.6815 34.2318 21.4452 34.2318 18.8012 32.7548C17.9268 32.2666 16.8661 32.1283 15.8924 32.3733C12.4228 33.2535 10 36.4174 10 40.0659V41.8351C10 42.9515 10.2961 44.0433 10.8587 44.9952C11.3168 45.7687 12.1755 46.25 13.0969 46.25H33.0281C33.9495 46.25 34.8081 45.7705 35.2662 44.9935C35.8288 44.0433 36.125 42.9515 36.125 41.8351V40.0659C36.1267 36.4174 33.7039 33.2535 30.2343 32.3733Z" fill="#F6F6F6"/>
<defs>
<linearGradient id="paint0_linear_0_1" x1="23.155" y1="46.31" x2="23.155" y2="0" gradientUnits="userSpaceOnUse">
<stop stop-color="#85CBF2"/>
<stop offset="1" stop-color="#A0E4ED"/>
</linearGradient>
</defs>
</svg>
