
<svg width="47" height="47" viewBox="0 0 47 47" fill="none" xmlns="http://www.w3.org/2000/svg">
<path d="M46.31 16.0327C46.31 15.8403 46.2791 15.6503 46.2174 15.4674L43.6335 7.7137C42.0969 3.10169 37.7961 0 32.9324 0H13.3776C8.51391 0 4.21543 3.09932 2.67651 7.7137L0.0926235 15.4674C0.0308768 15.6503 0 15.8403 0 16.0327C0.00237487 18.3553 0.916701 20.4548 2.37487 22.0412V37.4042C2.37487 42.3155 6.36941 46.31 11.2806 46.31H20.2505V37.4042C20.2505 35.7679 21.5828 34.4356 23.2191 34.4356C24.8554 34.4356 26.1877 35.7679 26.1877 37.4042V46.31H35.0294C39.9406 46.31 43.9351 42.3155 43.9351 37.4042V22.0412C45.3933 20.4524 46.3076 18.3553 46.31 16.0327ZM6.05589 8.83938C7.10796 5.68318 10.0504 3.56231 13.3776 3.56231H32.9324C36.2596 3.56231 39.202 5.68318 40.2541 8.83938L42.7406 16.2988C42.6005 19.1653 40.3158 21.3738 37.428 21.3738C35.0223 21.3738 32.671 19.8443 31.9586 17.8162C31.7092 17.1013 31.0349 16.6241 30.2773 16.6241H30.2701C29.5101 16.6265 28.8357 17.1109 28.5911 17.8281C27.9 19.8491 25.5607 21.3738 23.1502 21.3738C20.7397 21.3738 18.4004 19.8491 17.7093 17.8281C17.4647 17.1109 16.7903 16.6265 16.0304 16.6241H16.0233C15.2681 16.6241 14.5912 17.1013 14.3419 17.8162C13.6294 19.8443 11.2783 21.3738 8.8749 21.3738C5.98705 21.3738 3.70243 19.1653 3.56231 16.2988L6.05589 8.83938ZM35.0294 42.7477H29.75V37.4042C29.75 33.8016 26.8194 30.8733 23.2191 30.8733C19.6188 30.8733 16.6882 33.8016 16.6882 37.4042V42.7477H11.2806C8.33343 42.7477 5.93718 40.3514 5.93718 37.4042V24.3923C6.86338 24.7224 7.84418 24.9362 8.882 24.9362C11.6226 24.9362 14.2705 23.7059 16.0208 21.7846C17.7616 23.7083 20.4049 24.9362 23.155 24.9362C25.9051 24.9362 28.5484 23.7059 30.2892 21.7846C32.0395 23.7083 34.6874 24.9362 37.428 24.9362C38.4658 24.9362 39.4466 24.7224 40.3728 24.3923V37.4042C40.3728 40.3491 37.9766 42.7477 35.0294 42.7477Z" fill="url(#paint0_linear_517_221)"/>
<defs>
<linearGradient id="paint0_linear_517_221" x1="23.155" y1="46.31" x2="23.155" y2="0" gradientUnits="userSpaceOnUse">
<stop stop-color="#CEAEFF"/>
<stop offset="1" stop-color="#F088DF"/>
</linearGradient>
</defs>
</svg>
