<svg width="47" height="43" viewBox="0 0 47 43" fill="none" xmlns="http://www.w3.org/2000/svg">
<path d="M23.5 23.2825C29.7201 23.2825 34.7812 18.2213 34.7812 12.0012C34.7812 5.7811 29.7201 0.719971 23.5 0.719971C17.2799 0.719971 12.2188 5.7811 12.2188 12.0012C12.2188 18.2213 17.2799 23.2825 23.5 23.2825ZM23.5 4.28247C27.756 4.28247 31.2188 7.74522 31.2188 12.0012C31.2188 16.2572 27.756 19.72 23.5 19.72C19.244 19.72 15.7812 16.2572 15.7812 12.0012C15.7812 7.74522 19.244 4.28247 23.5 4.28247ZM39.5312 34.3263V36.3829C39.5312 38.3471 38.8116 40.2305 37.5078 41.6864C37.1586 42.0807 36.6693 42.2802 36.1801 42.2802C35.755 42.2802 35.3322 42.1304 34.9926 41.8264C34.2587 41.1709 34.1971 40.0453 34.8526 39.3114C35.5698 38.5087 35.9664 37.4683 35.9664 36.3829V34.3263C35.9664 31.3599 33.9999 28.795 31.1856 28.0896C30.7248 27.9732 30.245 28.0371 29.8531 28.258C25.9058 30.4573 21.0704 30.4478 17.154 28.2676C16.7431 28.0348 16.2634 27.9753 15.8098 28.087C12.9931 28.7947 11.0265 31.3599 11.0265 34.3263V36.3829C11.0265 37.4683 11.4231 38.5087 12.1403 39.3114C12.7958 40.0453 12.7342 41.1709 12.0003 41.8264C11.2688 42.4796 10.1406 42.4203 9.48512 41.6864C8.18125 40.2305 7.46165 38.3447 7.46165 36.3829V34.3263C7.46165 29.7259 10.5348 25.7406 14.9357 24.6315C16.2657 24.2942 17.7169 24.4866 18.8973 25.1635C21.7259 26.7357 25.2408 26.7451 28.1027 25.1539C29.2665 24.4865 30.7128 24.2918 32.0499 24.6338C36.4579 25.7405 39.5312 29.7259 39.5312 34.3263ZM36.0709 2.31364C36.3987 1.38739 37.4151 0.900445 38.3438 1.2282C41.8944 2.4822 44.2812 5.8571 44.2812 9.62622C44.2812 12.158 43.1982 14.5758 41.3125 16.2645C40.9705 16.5684 40.5477 16.7179 40.125 16.7179C39.6357 16.7179 39.1488 16.5184 38.7973 16.1241C38.1418 15.3903 38.2036 14.2646 38.9375 13.6091C40.0704 12.5974 40.7188 11.1462 40.7188 9.62622C40.7188 7.36522 39.2866 5.33947 37.1562 4.58659C36.2276 4.25884 35.7432 3.23989 36.0709 2.31364ZM46.6562 28.2296V29.9445C46.6562 30.9277 45.8582 31.7257 44.875 31.7257C43.8918 31.7257 43.0938 30.9277 43.0938 29.9445V28.2296C43.0938 25.895 41.5476 23.8762 39.3341 23.3204C38.3817 23.0806 37.7999 22.1139 38.0398 21.1591C38.282 20.2044 39.2533 19.6274 40.201 19.8649C44.0033 20.8197 46.6562 24.2586 46.6562 28.2296ZM5.6875 17.3189C3.80175 15.6303 2.71875 13.2124 2.71875 10.6806C2.71875 6.91152 5.10563 3.53662 8.65625 2.28262C9.592 1.95487 10.6013 2.44182 10.9291 3.36807C11.2568 4.2967 10.7724 5.31327 9.84375 5.64102C7.71337 6.3939 6.28125 8.41965 6.28125 10.6806C6.28125 12.1983 6.92963 13.6494 8.0625 14.6635C8.79638 15.319 8.85818 16.445 8.20267 17.1788C7.85355 17.5731 7.36425 17.7726 6.875 17.7726C6.45225 17.7726 6.02713 17.6229 5.6875 17.3189ZM7.66589 24.3749C5.45239 24.9306 3.90625 26.9494 3.90625 29.284V31.0012C3.90625 31.9845 3.10825 32.7825 2.125 32.7825C1.14175 32.7825 0.34375 31.9845 0.34375 31.0012V29.2864C0.34375 25.3154 2.99904 21.8764 6.79904 20.9217C7.75142 20.6889 8.72035 21.2614 8.96023 22.2162C9.2001 23.1662 8.62064 24.135 7.66589 24.3749Z" fill="url(#paint0_linear_517_257)"/>
<defs>
<linearGradient id="paint0_linear_517_257" x1="23.5" y1="0.719971" x2="23.5" y2="42.2802" gradientUnits="userSpaceOnUse">
<stop stop-color="#F4C85C"/>
<stop offset="1" stop-color="#F7C5B2"/>
</linearGradient>
</defs>
</svg>
