<svg width="1510" height="1389" viewBox="0 0 1510 1389" fill="none" xmlns="http://www.w3.org/2000/svg">
<path fill-rule="evenodd" clip-rule="evenodd" d="M472.617 244.507C394.291 205.669 304.662 183.627 209.435 183.627C204.055 183.627 199.693 187.638 199.693 192.586C199.693 280.154 223.663 362.573 265.899 434.598C176.949 436.976 87.3424 459.097 4.87274 502.881C0.213104 505.355 -1.3834 510.834 1.30684 515.119C48.9204 590.954 114.493 651.31 190.233 694.267C114.493 737.224 48.9207 797.58 1.30716 873.415C-1.38308 877.7 0.213432 883.178 4.87307 885.652C87.3421 929.436 176.948 951.557 265.897 953.935C223.663 1025.96 199.693 1108.38 199.693 1195.94C199.693 1200.89 204.055 1204.9 209.435 1204.9C304.662 1204.9 394.291 1182.86 472.616 1144.02C475.202 1225.82 499.258 1308.22 546.872 1384.05C549.562 1388.34 555.521 1389.81 560.18 1387.33C642.649 1343.55 708.285 1283.25 755 1213.6C801.715 1283.25 867.351 1343.55 949.82 1387.33C954.479 1389.81 960.438 1388.34 963.128 1384.05C1010.74 1308.22 1034.8 1225.82 1037.38 1144.02C1115.71 1182.86 1205.34 1204.9 1300.57 1204.9C1305.95 1204.9 1310.31 1200.89 1310.31 1195.94C1310.31 1108.38 1286.34 1025.96 1244.1 953.935C1333.05 951.556 1422.66 929.435 1505.13 885.652C1509.79 883.178 1511.38 877.7 1508.69 873.415C1461.08 797.58 1395.51 737.224 1319.77 694.267C1395.51 651.31 1461.08 590.954 1508.69 515.119C1511.38 510.834 1509.79 505.355 1505.13 502.881C1422.66 459.097 1333.05 436.977 1244.1 434.599C1286.34 362.573 1310.31 280.154 1310.31 192.586C1310.31 187.638 1305.95 183.627 1300.57 183.627C1205.34 183.627 1115.71 205.669 1037.38 244.507C1034.8 162.713 1010.74 80.3158 963.128 4.48089C960.437 0.196087 954.479 -1.272 949.819 1.20184C867.35 44.9853 801.715 105.283 755 174.93C708.285 105.283 642.65 44.9853 560.181 1.20184C555.521 -1.272 549.563 0.196087 546.872 4.48089C499.259 80.3156 475.203 162.713 472.617 244.507ZM702.948 611.363C662.18 567.838 614.452 531.805 562.216 503.866C519.103 434.174 495.045 355.671 492.164 275.64C566.094 317.95 627.997 376.36 672.076 445.537C672.269 501.107 682.341 557.133 702.948 611.363ZM673.082 413.136C626.619 348.47 564.587 294.096 491.896 254.528C492.738 175.32 514.395 95.2455 558.908 21.3088C637.659 64.8742 699.955 124.264 743.753 192.473C702.316 260.161 678.159 335.772 673.082 413.136ZM693.179 482.103C698.157 540.783 714.686 599.399 743.591 655.113C738.33 593.573 720.773 535.211 693.179 482.103ZM524.286 637.419C588.094 641.998 651.831 657.196 712.416 683.773C645.497 678.935 582.034 662.791 524.286 637.419ZM484.519 618.013C544.947 618.192 605.872 627.453 664.844 646.402C617.512 608.913 578.326 565.025 547.944 516.99C472.156 477.346 386.787 455.224 299.756 452.573C345.768 520.557 409.288 577.481 484.519 618.013ZM276.797 452.327C319.827 519.171 378.959 576.213 449.281 618.938C365.148 623.607 282.922 645.82 209.311 683.924C135.134 643.65 70.5492 586.365 23.1727 513.948C103.578 473.016 190.659 453.101 276.797 452.327ZM288.044 434.413C372.511 435.259 455.798 453.827 531.197 488.466C493.527 419.132 473.334 342.543 472.415 264.871C397.397 225.937 311.155 203.146 219.266 201.626C220.919 286.124 245.704 365.429 288.044 434.413ZM1018.1 254.529C1017.26 175.321 995.605 95.2457 951.092 21.3088C872.341 64.8742 810.045 124.264 766.247 192.473C807.685 260.162 831.841 335.773 836.918 413.137C883.381 348.472 945.413 294.097 1018.1 254.529ZM837.924 445.539C882.002 376.361 943.905 317.951 1017.84 275.64C1014.95 355.672 990.896 434.174 947.784 503.866C895.548 531.805 847.82 567.838 807.052 611.363C827.659 557.134 837.73 501.108 837.924 445.539ZM766.41 655.11C795.314 599.398 811.842 540.784 816.821 482.106C789.228 535.212 771.671 593.572 766.41 655.11ZM818.428 440.736C788.382 488.948 766.641 542.098 755.001 598.536C743.36 542.098 721.619 488.947 691.572 440.734C692.13 360.558 713.98 281.513 755 210.88C796.02 281.513 817.87 360.56 818.428 440.736ZM1037.58 264.871C1112.6 225.937 1198.85 203.146 1290.74 201.626C1289.08 286.124 1264.3 365.429 1221.96 434.413C1137.49 435.258 1054.2 453.827 978.804 488.466C1016.47 419.132 1036.67 342.544 1037.58 264.871ZM1210.25 452.573C1123.21 455.224 1037.84 477.346 962.056 516.99C931.674 565.025 892.488 608.913 845.156 646.402C904.128 627.453 965.054 618.192 1025.48 618.013C1100.71 577.481 1164.23 520.557 1210.25 452.573ZM797.584 683.773C864.503 678.935 927.967 662.792 985.716 637.419C921.907 641.997 858.169 657.196 797.584 683.773ZM1030.71 635.941C1117.9 636.454 1203.86 656.546 1280.67 694.267C1203.86 731.987 1117.9 752.079 1030.71 752.593C978.281 724.962 920.48 704.969 859.104 694.265C920.478 683.561 978.277 663.57 1030.71 635.941ZM797.577 704.756C858.166 731.338 921.91 746.537 985.724 751.115C927.97 725.739 864.502 709.594 797.577 704.756ZM1025.49 770.52C1100.72 811.053 1164.24 867.977 1210.25 935.96C1123.22 933.31 1037.85 911.188 962.057 871.544C931.674 823.509 892.489 779.62 845.156 742.131C904.13 761.081 965.058 770.342 1025.49 770.52ZM1233.21 936.206C1190.18 869.363 1131.05 812.32 1060.72 769.595C1144.86 764.926 1227.08 742.713 1300.69 704.609C1374.87 744.884 1439.45 802.168 1486.83 874.585C1406.42 915.517 1319.34 935.432 1233.21 936.206ZM1221.96 954.12C1137.49 953.275 1054.2 934.707 978.804 900.067C1016.47 969.401 1036.67 1045.99 1037.58 1123.66C1112.6 1162.59 1198.85 1185.38 1290.74 1186.9C1289.08 1102.41 1264.3 1023.1 1221.96 954.12ZM1017.84 1112.89C1014.95 1032.86 990.896 954.358 947.785 884.668C895.548 856.729 847.82 820.695 807.052 777.171C827.658 831.398 837.73 887.423 837.924 942.991C882.002 1012.17 943.905 1070.58 1017.84 1112.89ZM766.41 733.424C771.672 794.961 789.228 853.319 816.821 906.423C811.841 847.747 795.314 789.135 766.41 733.424ZM818.428 947.794C817.87 1027.97 796.02 1107.02 755 1177.65C713.98 1107.02 692.13 1027.97 691.572 947.796C721.619 899.583 743.36 846.433 755.001 789.995C766.641 846.432 788.382 899.582 818.428 947.794ZM693.179 906.425C698.158 847.748 714.687 789.134 743.591 733.422C738.33 794.96 720.773 853.32 693.179 906.425ZM672.076 942.992C627.998 1012.17 566.094 1070.58 492.164 1112.89C495.046 1032.86 519.104 954.359 562.215 884.667C614.452 856.729 662.18 820.695 702.948 777.171C682.342 831.399 672.27 887.424 672.076 942.992ZM491.896 1134C564.587 1094.43 626.619 1040.06 673.082 975.395C678.159 1052.76 702.315 1128.37 743.753 1196.06C699.955 1264.27 637.659 1323.66 558.907 1367.22C514.394 1293.29 492.737 1213.21 491.896 1134ZM472.415 1123.66C473.334 1045.99 493.527 969.401 531.196 900.067C455.797 934.706 372.51 953.275 288.043 954.12C245.703 1023.1 220.919 1102.41 219.266 1186.9C311.155 1185.38 397.397 1162.59 472.415 1123.66ZM299.754 935.96C386.786 933.31 472.155 911.187 547.943 871.544C578.326 823.509 617.511 779.62 664.844 742.131C605.87 761.081 544.943 770.342 484.513 770.52C409.284 811.053 345.765 867.977 299.754 935.96ZM479.289 752.593C392.1 752.079 306.139 731.987 229.327 694.267C306.141 656.546 392.103 636.454 479.295 635.941C531.724 663.57 589.523 683.561 650.897 694.265C589.521 704.969 531.72 724.962 479.289 752.593ZM524.277 751.115C582.031 725.74 645.499 709.595 712.423 704.757C651.834 731.337 588.091 746.537 524.277 751.115ZM449.277 769.595C378.955 812.32 319.824 869.363 276.796 936.206C190.658 935.432 103.578 915.517 23.1731 874.585C70.5495 802.168 135.134 744.884 209.311 704.609C282.92 742.713 365.145 764.926 449.277 769.595ZM836.918 975.393C883.381 1040.06 945.413 1094.43 1018.1 1134C1017.26 1213.21 995.606 1293.29 951.093 1367.22C872.341 1323.66 810.045 1264.27 766.247 1196.06C807.685 1128.37 831.841 1052.76 836.918 975.393ZM1060.72 618.938C1131.04 576.213 1190.17 519.171 1233.2 452.327C1319.34 453.101 1406.42 473.016 1486.83 513.948C1439.45 586.365 1374.87 643.65 1300.69 683.924C1227.08 645.82 1144.85 623.607 1060.72 618.938ZM923.898 538.955C871.126 572.259 824.189 614.728 786.172 665.603C841.496 630.643 887.681 587.482 923.898 538.955ZM923.899 849.579C887.681 801.051 841.496 757.889 786.171 722.93C824.188 773.805 871.126 816.275 923.899 849.579ZM723.829 722.93C685.812 773.805 638.874 816.275 586.101 849.579C622.319 801.051 668.504 757.889 723.829 722.93ZM723.828 665.603C668.504 630.644 622.319 587.482 586.102 538.955C638.874 572.259 685.811 614.728 723.828 665.603Z" fill="url(#paint0_radial_487_322)"/>
<defs>
<radialGradient id="paint0_radial_487_322" cx="0" cy="0" r="1" gradientUnits="userSpaceOnUse" gradientTransform="translate(755.001 694.262) rotate(90) scale(564.389 613.761)">
<stop stop-color="#D0F7C3"/>
<stop offset="1" stop-color="#EEEEEE" stop-opacity="0.41"/>
</radialGradient>
</defs>
</svg>
