<svg width="533" height="511" viewBox="0 0 533 511" fill="none" xmlns="http://www.w3.org/2000/svg">
<path fill-rule="evenodd" clip-rule="evenodd" d="M88.1836 244.962C95.696 218.019 107.071 198.947 121.329 185.066C148.195 158.911 186.128 150.281 231.365 143.55C238.789 142.445 246.388 141.394 254.137 140.322C335.133 129.121 432.488 115.658 516.882 14.8159C520.46 11.8352 524.019 8.71386 527.557 5.44519C533.962 12.4642 534.218 24.5537 524.946 31.1987L120.265 321.22C108.734 329.484 95.374 331.063 83.5584 327.689C83.739 296.228 85.3402 268.83 88.1836 244.962ZM482.275 39.1825C448.187 59.1602 413.042 68.8809 378.493 73.6867C352.096 77.3587 326.025 78.1655 301.197 78.5187C296.453 78.5862 291.765 78.6372 287.131 78.6877C267.338 78.9034 248.542 79.1081 230.691 80.5332C186.857 84.0326 151.175 94.7386 125.8 129.153C112.564 147.104 101.809 171.916 94.4618 206.361C100.45 195.638 107.433 186.585 115.327 178.9C144.394 150.601 184.982 141.752 230.098 135.038C237.558 133.928 245.164 132.874 252.892 131.802C324.703 121.846 407.156 110.414 482.275 39.1825ZM52.1768 286.249C52.1768 299.502 57.8493 310.654 66.4439 318.292C67.9314 218.364 84.0857 156.727 111.948 118.939C141.71 78.5766 183.563 67.0307 229.321 63.3777C247.821 61.9008 267.361 61.6894 287.196 61.4748L287.204 61.4747L287.205 61.4747C291.775 61.4253 296.36 61.3756 300.952 61.3103C325.656 60.959 350.838 60.1579 376.122 56.6408C420.773 50.4296 465.667 35.7623 507.759 0L224.277 0.000296691C129.229 0.000408457 52.1768 77.0524 52.1768 172.101L52.1768 286.249Z" fill="#242424"/>
<path fill-rule="evenodd" clip-rule="evenodd" d="M444.526 265.094C437.014 292.037 425.639 311.108 411.381 324.99C384.515 351.145 346.582 359.774 301.345 366.506C293.924 367.61 286.328 368.661 278.582 369.732L278.573 369.733C197.577 380.934 100.222 394.398 15.828 495.24C12.2502 498.22 8.69125 501.342 5.15326 504.61C-1.25214 497.591 -1.50824 485.502 7.76383 478.857L412.445 188.836C423.976 180.572 437.336 178.993 449.152 182.367C448.971 213.828 447.37 241.225 444.526 265.094ZM50.4345 470.873C84.5234 450.895 119.668 441.175 154.217 436.369C180.614 432.697 206.685 431.89 231.513 431.537C236.257 431.469 240.945 431.418 245.579 431.368C265.372 431.152 284.168 430.947 302.019 429.522C345.853 426.023 381.535 415.317 406.91 380.903C420.146 362.952 430.901 338.139 438.248 303.694C432.26 314.418 425.277 323.471 417.383 331.155C388.316 359.454 347.728 368.304 302.612 375.017C295.152 376.127 287.546 377.182 279.818 378.253C208.007 388.21 125.554 399.641 50.4345 470.873ZM480.533 223.807C480.533 210.553 474.861 199.401 466.266 191.763C464.779 291.691 448.624 353.329 420.762 391.116C391 431.479 349.147 443.025 303.389 446.678C284.889 448.155 265.349 448.366 245.515 448.581L245.514 448.581C240.942 448.63 236.353 448.68 231.758 448.745C207.054 449.097 181.872 449.898 156.588 453.415C111.937 459.626 67.0431 474.293 24.9511 510.056L308.433 510.055C403.481 510.055 480.533 433.003 480.533 337.955L480.533 223.807Z" fill="#242424"/>
</svg>
